# xmcd
#
# Track frame offsets: 
#        150
#        14505
#        27894
#        42889
#        58283
#        72341
#        85617
#        102036
#        115007
#        127417
#        142037
#        156225
#        169021
#        180450
#        193560
#        206632
#        220324
#        233609
#        246226
#        258919
#        273026
#        285723
#        301011
#        311745
#        325212
#
# Disc length: 4516 seconds
#
# Revision: 1
# Processed by: cddbd v1.5.2PL0 Copyright (c) Steve Scherf et al.
# Submitted via: ExactAudioCopyFreeDBPlugin 1.0
#
DISCID=6611a219
DTITLE=Various Artist - A Short Cut To The Grave [CD2)
DYEAR=2014
DGENRE=Blues
TTITLE0=Ma Rainey - Booze And Blues
TTITLE1=Lewis Black - Corn Liquor Blues
TTITLE2=Victoria Spivey - Dope Head Blues
TTITLE3=Luke Jordan - Cocaine Blues
TTITLE4=Margaret Johnson - Dead Drunk Blues
TTITLE5=Jim Jackson - Bootlegging Blues
TTITLE6=Tommy Johnson - Canned Heat Blues
TTITLE7=Bill Johnson's Jug Band - Don't Drink It In Here
TTITLE8=Clifford Gibson - Whiskey Moan Blues
TTITLE9=Jenny Pope - Whiskey Drinkin' Blues
TTITLE10=Barbecue Bob - Me And My Whiskey
TTITLE11=Memphis Jug Band - Cocaine Habit Blues
TTITLE12=Leroy Carr - Papa Wants To Knock A Jug
TTITLE13=Funny Paper Smith - Corn Whiskey Blues
TTITLE14=James 'Stump' Johnson - Barrel Of Whiskey Blues
TTITLE15=Roosevelt Sykes - Devil's Island Gin
TTITLE16=Lucille Bogan - Drinking Blues
TTITLE17=Scrapper Blackwell - Bad Liquor Blues
TTITLE18=Jimmie Gordon - Drunken Woman Blues
TTITLE19=Blind Teddy Darby - Bootleggin' Ain't Good No More
TTITLE20=Jack Newman - Blackberry Wine
TTITLE21=Joe Williams - Haven't Seen No Whiskey
TTITLE22=Bukka White - Good Gin Blues
TTITLE23=Memphis Slim - Beer Drinking Woman
TTITLE24=Sonny Boy Williamson - Blues That Made Me Drunk
EXTD=
EXTT0=
EXTT1=
EXTT2=
EXTT3=
EXTT4=
EXTT5=
EXTT6=
EXTT7=
EXTT8=
EXTT9=
EXTT10=
EXTT11=
EXTT12=
EXTT13=
EXTT14=
EXTT15=
EXTT16=
EXTT17=
EXTT18=
EXTT19=
EXTT20=
EXTT21=
EXTT22=
EXTT23=
EXTT24=
PLAYORDER=
